<svg width="596" height="276" viewBox="0 0 596 276" fill="none" xmlns="http://www.w3.org/2000/svg">
<ellipse cx="57.3893" cy="50.5392" rx="23.4818" ry="53.8264" transform="rotate(-54.185 57.3893 50.5392)" fill="#61C1EA"/>
<ellipse cx="145.727" cy="69.8164" rx="20.5357" ry="46.5707" transform="rotate(-55.3913 145.727 69.8164)" fill="#90D1EF"/>
<ellipse cx="113.794" cy="138.829" rx="21.721" ry="46.5707" transform="rotate(-43.7227 113.794 138.829)" fill="#32B2E3"/>
<ellipse cx="171.209" cy="226.631" rx="19.2557" ry="46.5707" transform="rotate(-36.7663 171.209 226.631)" fill="#09A5DF"/>
<ellipse cx="214.818" cy="210.889" rx="17.7529" ry="31.4788" transform="rotate(-26.4331 214.818 210.889)" fill="#33B3E3"/>
<ellipse cx="256.82" cy="191.612" rx="16.8986" ry="22.1152" transform="rotate(21.8328 256.82 191.612)" fill="#66C2EB"/>
<ellipse cx="179.822" cy="142.085" rx="22.8808" ry="35.2204" transform="rotate(-45.0167 179.822 142.085)" fill="#F7941E"/>
<ellipse cx="245.861" cy="143.97" rx="17.4439" ry="31.0864" transform="rotate(-68.9639 245.861 143.97)" fill="#91D1EF"/>
<ellipse cx="236.057" cy="91.8216" rx="17.1585" ry="39.8394" transform="rotate(-65.7187 236.057 91.8216)" fill="#C4E7F7"/>
<path d="M304.422 134.125V191H291.688V134.125H304.422ZM326.805 158.109V167.953H300.867V158.109H326.805ZM329.305 134.125V144.008H300.867V134.125H329.305ZM361.07 134.125V191H348.375V134.125H361.07ZM408.656 134.125V191H395.961V134.125H408.656ZM425.961 134.125V144.008H379.008V134.125H425.961Z" fill="#0096D7"/>
<path d="M452.17 179.134C452.17 178.255 452.024 177.471 451.731 176.783C451.438 176.094 450.955 175.479 450.281 174.937C449.622 174.38 448.728 173.868 447.6 173.399C446.487 172.916 445.095 172.439 443.425 171.971C441.829 171.517 440.386 171.019 439.097 170.477C437.808 169.935 436.702 169.312 435.779 168.609C434.871 167.906 434.175 167.085 433.691 166.148C433.208 165.196 432.966 164.09 432.966 162.83C432.966 161.6 433.23 160.479 433.757 159.468C434.285 158.458 435.024 157.586 435.977 156.854C436.943 156.121 438.079 155.557 439.382 155.162C440.701 154.766 442.144 154.568 443.711 154.568C445.952 154.568 447.886 154.993 449.512 155.843C451.152 156.692 452.419 157.842 453.313 159.292C454.221 160.728 454.675 162.339 454.675 164.126H451.973C451.973 162.735 451.643 161.497 450.984 160.413C450.339 159.314 449.402 158.458 448.171 157.842C446.956 157.212 445.469 156.897 443.711 156.897C441.953 156.897 440.474 157.168 439.272 157.71C438.086 158.238 437.185 158.948 436.57 159.842C435.969 160.721 435.669 161.702 435.669 162.786C435.669 163.548 435.815 164.251 436.108 164.896C436.401 165.525 436.877 166.119 437.537 166.675C438.21 167.217 439.097 167.73 440.195 168.213C441.294 168.682 442.649 169.129 444.26 169.554C445.959 170.022 447.468 170.542 448.787 171.114C450.105 171.685 451.218 172.344 452.126 173.091C453.035 173.824 453.723 174.681 454.192 175.662C454.661 176.644 454.895 177.786 454.895 179.09C454.895 180.394 454.617 181.565 454.06 182.605C453.518 183.631 452.749 184.502 451.753 185.22C450.771 185.938 449.607 186.487 448.259 186.868C446.926 187.249 445.469 187.439 443.887 187.439C442.466 187.439 441.052 187.256 439.646 186.89C438.24 186.524 436.951 185.96 435.779 185.198C434.622 184.422 433.691 183.426 432.988 182.21C432.3 180.994 431.956 179.544 431.956 177.859H434.636C434.636 179.207 434.907 180.342 435.449 181.265C435.991 182.188 436.709 182.935 437.603 183.506C438.511 184.078 439.507 184.495 440.591 184.759C441.689 185.008 442.788 185.132 443.887 185.132C445.571 185.132 447.029 184.883 448.259 184.385C449.504 183.887 450.464 183.191 451.138 182.298C451.826 181.39 452.17 180.335 452.17 179.134ZM468.848 178.541L475.791 155.008H477.966L476.208 161.995L468.804 187H466.716L468.848 178.541ZM460.784 155.008L466.628 178.321L468.386 187H466.211L458.015 155.008H460.784ZM487.327 178.321L493.083 155.008H495.852L487.678 187H485.503L487.327 178.321ZM478.208 155.008L485.063 178.541L487.173 187H485.085L477.834 161.995L476.055 155.008H478.208ZM504.377 155.008V187H501.675V155.008H504.377ZM523.142 155.008V187H520.461V155.008H523.142ZM534.106 155.008V157.337H509.519V155.008H534.106ZM558.628 177.024H561.331C561.111 179.178 560.518 181.038 559.551 182.605C558.584 184.158 557.266 185.352 555.596 186.187C553.926 187.022 551.912 187.439 549.553 187.439C547.737 187.439 546.089 187.095 544.609 186.407C543.145 185.718 541.885 184.744 540.83 183.484C539.775 182.21 538.962 180.687 538.391 178.914C537.82 177.142 537.534 175.171 537.534 173.003V169.004C537.534 166.836 537.82 164.874 538.391 163.116C538.962 161.343 539.783 159.82 540.852 158.545C541.921 157.271 543.203 156.29 544.697 155.601C546.191 154.913 547.876 154.568 549.751 154.568C552.021 154.568 553.984 154.986 555.64 155.821C557.295 156.641 558.599 157.828 559.551 159.38C560.518 160.933 561.111 162.808 561.331 165.005H558.628C558.423 163.277 557.969 161.812 557.266 160.611C556.562 159.41 555.588 158.494 554.343 157.864C553.113 157.22 551.582 156.897 549.751 156.897C548.257 156.897 546.924 157.183 545.752 157.754C544.58 158.326 543.584 159.146 542.764 160.215C541.943 161.27 541.313 162.537 540.874 164.017C540.449 165.496 540.237 167.144 540.237 168.96V173.003C540.237 174.761 540.442 176.38 540.852 177.859C541.262 179.339 541.863 180.621 542.654 181.705C543.459 182.789 544.441 183.631 545.598 184.231C546.755 184.832 548.074 185.132 549.553 185.132C551.443 185.132 553.018 184.832 554.277 184.231C555.552 183.616 556.541 182.708 557.244 181.507C557.947 180.306 558.408 178.812 558.628 177.024ZM589.434 169.356V171.663H569.988V169.356H589.434ZM570.625 155.008V187H567.922V155.008H570.625ZM591.609 155.008V187H588.906V155.008H591.609Z" fill="#F7941E"/>
<path d="M374.417 103.896L370.479 102.583L372.333 98.8751C372.521 98.4869 372.584 98.05 372.513 97.6246C372.442 97.1992 372.241 96.8063 371.937 96.5001L367.5 92.0626C367.192 91.7544 366.795 91.5505 366.366 91.4795C365.936 91.4085 365.495 91.474 365.104 91.6668L361.396 93.5209L360.083 89.5834C359.945 89.173 359.681 88.816 359.33 88.5621C358.979 88.3082 358.558 88.17 358.125 88.1668H351.875C351.438 88.1656 351.012 88.3018 350.657 88.556C350.302 88.8102 350.035 89.1696 349.896 89.5834L348.583 93.5209L344.875 91.6668C344.487 91.4788 344.05 91.4159 343.624 91.4868C343.199 91.5577 342.806 91.7589 342.5 92.0626L338.062 96.5001C337.754 96.8079 337.55 97.2046 337.479 97.6344C337.408 98.0641 337.474 98.5053 337.667 98.8959L339.521 102.604L335.583 103.917C335.173 104.055 334.816 104.318 334.562 104.669C334.308 105.02 334.17 105.442 334.167 105.875V112.125C334.165 112.562 334.302 112.988 334.556 113.343C334.81 113.698 335.169 113.964 335.583 114.104L339.521 115.417L337.667 119.125C337.479 119.513 337.416 119.95 337.487 120.376C337.557 120.801 337.759 121.194 338.062 121.5L342.5 125.938C342.808 126.246 343.204 126.45 343.634 126.521C344.064 126.592 344.505 126.526 344.896 126.333L348.604 124.479L349.917 128.417C350.056 128.831 350.323 129.19 350.678 129.444C351.033 129.698 351.459 129.835 351.896 129.833H358.146C358.582 129.835 359.009 129.698 359.364 129.444C359.719 129.19 359.985 128.831 360.125 128.417L361.437 124.479L365.146 126.333C365.531 126.517 365.964 126.577 366.385 126.506C366.806 126.435 367.195 126.237 367.5 125.938L371.937 121.5C372.245 121.192 372.449 120.796 372.52 120.366C372.591 119.936 372.526 119.495 372.333 119.104L370.479 115.396L374.417 114.083C374.827 113.945 375.184 113.682 375.438 113.331C375.692 112.98 375.83 112.558 375.833 112.125V105.875C375.834 105.438 375.698 105.012 375.444 104.657C375.19 104.302 374.83 104.036 374.417 103.896ZM371.667 110.625L369.167 111.458C368.592 111.645 368.064 111.954 367.621 112.365C367.177 112.776 366.829 113.278 366.599 113.837C366.369 114.396 366.263 114.998 366.289 115.602C366.315 116.206 366.473 116.796 366.75 117.333L367.937 119.708L365.646 122L363.333 120.75C362.799 120.484 362.214 120.336 361.617 120.315C361.021 120.295 360.427 120.403 359.876 120.632C359.324 120.861 358.829 121.206 358.423 121.643C358.016 122.081 357.709 122.6 357.521 123.167L356.687 125.667H353.375L352.542 123.167C352.355 122.592 352.046 122.064 351.635 121.621C351.224 121.178 350.722 120.829 350.163 120.599C349.604 120.369 349.002 120.263 348.398 120.29C347.794 120.316 347.204 120.473 346.667 120.75L344.292 121.938L342 119.646L343.25 117.333C343.527 116.796 343.684 116.206 343.71 115.602C343.736 114.998 343.631 114.396 343.401 113.837C343.171 113.278 342.822 112.776 342.379 112.365C341.935 111.954 341.408 111.645 340.833 111.458L338.333 110.625V107.375L340.833 106.542C341.408 106.355 341.935 106.046 342.379 105.635C342.822 105.225 343.171 104.722 343.401 104.163C343.631 103.605 343.736 103.002 343.71 102.398C343.684 101.795 343.527 101.204 343.25 100.667L342.062 98.3543L344.354 96.0626L346.667 97.2501C347.204 97.5274 347.794 97.6845 348.398 97.7106C349.002 97.7367 349.604 97.6311 350.163 97.4012C350.722 97.1713 351.224 96.8225 351.635 96.3791C352.046 95.9357 352.355 95.4083 352.542 94.8334L353.375 92.3334H356.625L357.458 94.8334C357.645 95.4083 357.954 95.9357 358.365 96.3791C358.775 96.8225 359.278 97.1713 359.836 97.4012C360.395 97.6311 360.998 97.7367 361.601 97.7106C362.205 97.6845 362.796 97.5274 363.333 97.2501L365.708 96.0626L368 98.3543L366.75 100.667C366.484 101.201 366.335 101.786 366.315 102.383C366.295 102.979 366.403 103.573 366.632 104.124C366.861 104.676 367.206 105.171 367.643 105.577C368.081 105.984 368.6 106.291 369.167 106.479L371.667 107.313V110.625ZM355 100.667C353.352 100.667 351.741 101.155 350.37 102.071C349 102.987 347.932 104.288 347.301 105.811C346.67 107.334 346.505 109.009 346.827 110.626C347.148 112.242 347.942 113.727 349.107 114.893C350.273 116.058 351.758 116.852 353.374 117.173C354.991 117.495 356.666 117.33 358.189 116.699C359.712 116.068 361.013 115 361.929 113.63C362.844 112.259 363.333 110.648 363.333 109C363.333 106.79 362.455 104.67 360.892 103.108C359.33 101.545 357.21 100.667 355 100.667V100.667ZM355 113.167C354.176 113.167 353.37 112.922 352.685 112.465C352 112.007 351.466 111.356 351.15 110.595C350.835 109.833 350.752 108.995 350.913 108.187C351.074 107.379 351.471 106.637 352.054 106.054C352.636 105.471 353.379 105.074 354.187 104.913C354.995 104.753 355.833 104.835 356.594 105.151C357.356 105.466 358.006 106 358.464 106.685C358.922 107.37 359.167 108.176 359.167 109C359.167 110.105 358.728 111.165 357.946 111.946C357.165 112.728 356.105 113.167 355 113.167Z" fill="#0096D7"/>
</svg>
